# xmcd
#
# Track frame offsets:
#	150
#	14037
#	24900
#	43000
#	72297
#	85747
#	96295
#	117950
#	132047
#	145320
#	155930
#	171835
#	188872
#	207760
#
# Disc length: 3006 seconds
#
# Revision: 1
# Processed by: cddbd v1.5.2PL0 Copyright (c) Steve Scherf et al.
# Submitted via: audiograbber 1.83.01
#
DISCID=c30bbc0e
DTITLE=Various Artist - Treasured Hymns
DYEAR=2000
DGENRE=Gospel
TTITLE0=Ivan Parker - Love Lifted Me
TTITLE1=Cathedrals - Since Jesus Came Into My Heart
TTITLE2=Imperials - Standing In The Presence Of The King
TTITLE3=Speer Family - Blessed Assurance
TTITLE4=Anthony Burger - Holy Ground
TTITLE5=Florida Boys - Are You Washed In The Blood
TTITLE6=Walt Mills - Softly And Tenderly
TTITLE7=Homeland Quartet - While Ages Roll
TTITLE8=Cathedrals - There Is A Fountain
TTITLE9=Wendy Bagwell and The Sunliters - Vidtory In Jesus
TTITLE10=Kevin Williams - Whispering Hope
TTITLE11=Bishops - Mary Don't You Weep
TTITLE12=Dove Brothers Quartet - If That Isn't Love
TTITLE13=John Hagee - It Is Well With My Soul
EXTD=
EXTT0=
EXTT1=
EXTT2=
EXTT3=
EXTT4=
EXTT5=
EXTT6=
EXTT7=
EXTT8=
EXTT9=
EXTT10=
EXTT11=
EXTT12=
EXTT13=
PLAYORDER=
